<svg xmlns="http://www.w3.org/2000/svg" version="1.1" xmlns:xlink="http://www.w3.org/1999/xlink" xmlns:svgjs="http://svgjs.com/svgjs" width="1440" height="560" preserveAspectRatio="none" viewBox="0 0 1440 560"><g mask="url(&quot;#SvgjsMask1001&quot;)" fill="none"><rect width="1440" height="560" x="0" y="0" fill="rgba(14, 30, 37, 1)"></rect><path d="M0,481.859C90.234,466.746,107.309,336.157,183.102,284.912C256.008,235.619,377.563,268.15,425.366,194.258C472.179,121.896,415.268,27.337,405.1,-58.245C394.626,-146.404,422.646,-248.754,364.738,-316.047C306.823,-383.348,203.069,-378.001,115.811,-394.417C37,-409.244,-40.561,-420.994,-119.553,-407.159C-206.052,-392.01,-294.734,-370.883,-359.177,-311.228C-427.097,-248.354,-473.815,-161.587,-484.187,-69.616C-494.419,21.106,-463.059,111.793,-415.687,189.838C-371.612,262.45,-296.779,304.817,-227.274,353.645C-154.628,404.679,-87.56,496.524,0,481.859" fill="#0b181e"></path><path d="M1440 1191.338C1558.149 1216.4859999999999 1681.7350000000001 1159.3029999999999 1779.993 1089.039 1875.7 1020.6 1955.394 921.367 1978.788 806.056 2000.5639999999999 698.7239999999999 1923.592 600.866 1900.7649999999999 493.752 1879.93 395.985 1898.6680000000001 291.879 1850.539 204.26600000000002 1795.935 104.86500000000001 1717.504 14.692000000000007 1613.174-29.775999999999954 1503.098-76.69299999999998 1375.074-85.42100000000005 1261.875-46.63900000000001 1150.75-8.567999999999984 1075.6100000000001 88.88900000000001 1001.29 179.85500000000002 928.902 268.455 856.157 360.504 837.067 473.31100000000004 817.733 587.565 828.003 714.304 894.828 808.972 958.617 899.3389999999999 1091.27 898.206 1181.829 961.722 1278.068 1029.221 1325.026 1166.866 1440 1191.338" fill="#11242c"></path></g><defs><mask id="SvgjsMask1001"><rect width="1440" height="560" fill="#ffffff"></rect></mask></defs></svg>